<svg
	xmlns="http://www.w3.org/2000/svg"
	width="0"
	height="0">
	<defs>
		<symbol
			viewBox="-146 129 218 256"
			id="icon-android">
			<path
				d="M-2.9,150.4l2.8-4.2l2.8-4.1l6.2-9.3c0.8-1.1,0.5-2.7-0.7-3.4c-1.1-0.8-2.7-0.5-3.4,0.7l-6.6,9.9l-2.8,4.2l-2.8,4.2 c-9-3.5-18.9-5.4-29.5-5.4c-10.5,0-20.5,1.9-29.5,5.4l-2.8-4.2L-72,140l-6.6-9.9c-0.8-1.1-2.3-1.4-3.4-0.7 c-1.1,0.8-1.4,2.3-0.7,3.4l6.2,9.3l2.8,4.1l2.8,4.2c-21,9.8-35.3,28.3-35.3,49.6H32.5C32.4,178.7,18.2,160.2-2.9,150.4z M-66.7,180.1c-4.1,0-7.4-3.3-7.4-7.4c0-4.1,3.3-7.4,7.4-7.4c4.1,0,7.4,3.3,7.4,7.4S-62.6,180.1-66.7,180.1z M-7.3,180.1 c-4.1,0-7.4-3.3-7.4-7.4c0-4.1,3.3-7.4,7.4-7.4c4.1,0,7.4,3.3,7.4,7.4C0.2,176.8-3.1,180.1-7.3,180.1z"></path>
			<path
				d="M-105.3,209.8l-1.1,0.1v12.3v10.1v86.6c0,8.7,7,15.7,15.7,15.7h11.3c-0.4,1.3-0.6,2.7-0.6,4.1v0.8v5v25.6 c0,8.2,6.7,14.9,14.9,14.9s14.9-6.7,14.9-14.9v-25.6v-5v-0.8c0-1.4-0.2-2.8-0.6-4.1h27.6c-0.4,1.3-0.6,2.7-0.6,4.1v0.8v5v25.6 c0,8.2,6.7,14.9,14.9,14.9c8.2,0,14.9-6.7,14.9-14.9v-25.6v-5v-0.8c0-1.4-0.2-2.8-0.6-4.1h11.3c8.7,0,15.7-7,15.7-15.7v-86.6v-10.1 v-12.4h-1.1H-105.3z"></path>
			<path
				d="M-131.1,209.9c-8.2,0-14.9,6.7-14.9,14.9v63.6c0,8.2,6.7,14.9,14.9,14.9c8.2,0,14.9-6.7,14.9-14.9v-63.6 C-116.3,216.5-122.9,209.9-131.1,209.9z"></path>
			<path
				d="M57.2,209.9c-8.2,0-14.9,6.7-14.9,14.9v63.6c0,8.2,6.7,14.9,14.9,14.9s14.9-6.7,14.9-14.9v-63.6 C72,216.5,65.4,209.9,57.2,209.9z"></path>
		</symbol>
		<symbol
			viewBox="0 0 512 512"
			enable-background="new 0 0 512 512"
			id="icon-ios-apple">
			<path
				d="M248.639,123.48c-5.447-29.712,8.601-60.286,25.518-80.894C292.803,19.854,324.799,2.415,352.141,0.5 c4.624,31.149-8.088,61.499-24.822,82.965C309.37,106.526,278.506,124.412,248.639,123.48z M409.029,231.128 c8.463-23.604,25.222-44.841,51.226-59.172c-26.282-32.794-63.169-51.828-97.992-51.828c-46.064,0-65.534,21.944-97.53,21.944 c-32.96,0-57.97-21.944-97.866-21.944c-39.124,0-80.776,23.845-107.187,64.578c-9.714,15.046-16.297,33.751-19.882,54.585 c-9.951,58.444,4.916,134.558,49.279,202.143c21.57,32.802,50.318,69.738,87.878,70.063c33.46,0.324,42.958-21.392,88.244-21.624 c45.361-0.25,53.957,21.849,87.375,21.524c37.572-0.316,67.9-41.194,89.475-73.988c15.354-23.529,21.167-35.414,33.11-62.021 C414.428,352.482,389.455,285.571,409.029,231.128z"></path>
		</symbol>
		<symbol
			viewBox="0 0 24 24"
			id="icon-web">
			<path
				d="M7.8 12L7.05 12L7.8 12ZM16.2 12H16.95H16.2ZM12 16.2V16.95V16.2ZM14.1729 22.2749L14.3273 23.0088L14.1729 22.2749ZM9.82712 22.2749L9.67269 23.0088L9.82712 22.2749ZM2.27554 8.03225L1.58122 7.74867H1.58122L2.27554 8.03225ZM1.7251 14.1729L0.991173 14.3273L1.7251 14.1729ZM9.82712 1.7251L9.67269 0.991173L9.82712 1.7251ZM14.1729 1.7251L14.3273 0.991174L14.1729 1.7251ZM21.6399 8.07014L21.8576 8.78785L21.6399 8.07014ZM2.35887 8.06976L2.14116 8.78747L2.35887 8.06976ZM21.0312 8.3185C21.4944 9.45344 21.75 10.6959 21.75 12H23.25C23.25 10.4983 22.9553 9.06352 22.42 7.75174L21.0312 8.3185ZM21.75 12C21.75 12.6927 21.6779 13.3678 21.541 14.0184L23.0088 14.3273C23.167 13.5757 23.25 12.7972 23.25 12H21.75ZM21.541 14.0184C20.7489 17.7827 17.7828 20.7489 14.0184 21.541L14.3273 23.0088C18.6735 22.0943 22.0943 18.6735 23.0088 14.3273L21.541 14.0184ZM14.0184 21.541C13.3678 21.6779 12.6927 21.75 12 21.75V23.25C12.7972 23.25 13.5757 23.167 14.3273 23.0088L14.0184 21.541ZM12 21.75C11.3072 21.75 10.6322 21.6779 9.98156 21.541L9.67269 23.0088C10.4242 23.167 11.2028 23.25 12 23.25V21.75ZM2.25 12C2.25 10.6949 2.50601 9.45149 2.96986 8.31584L1.58122 7.74867C1.0451 9.06127 0.75 10.4971 0.75 12H2.25ZM9.98156 21.541C6.21724 20.7489 3.25112 17.7827 2.45903 14.0184L0.991173 14.3273C1.90571 18.6735 5.32647 22.0943 9.67269 23.0088L9.98156 21.541ZM2.45903 14.0184C2.32213 13.3678 2.25 12.6927 2.25 12H0.75C0.75 12.7972 0.83303 13.5757 0.991173 14.3273L2.45903 14.0184ZM2.96986 8.31584C4.17707 5.36016 6.79381 3.1298 9.98155 2.45903L9.67269 0.991173C5.99032 1.76602 2.97369 4.33941 1.58122 7.74867L2.96986 8.31584ZM9.98155 2.45903C10.6322 2.32213 11.3072 2.25 12 2.25V0.75C11.2028 0.75 10.4242 0.83303 9.67269 0.991173L9.98155 2.45903ZM12 2.25C12.6927 2.25 13.3678 2.32213 14.0184 2.45903L14.3273 0.991174C13.5757 0.833031 12.7972 0.75 12 0.75V2.25ZM14.0184 2.45903C17.2071 3.13 19.8245 5.3615 21.0312 8.3185L22.42 7.75174C21.0281 4.34096 18.0108 1.76625 14.3273 0.991174L14.0184 2.45903ZM13.4584 1.95309C13.7482 2.8614 14.8215 6.35621 15.2615 9.5682L16.7476 9.36461C16.289 6.01664 15.1813 2.41835 14.8874 1.49712L13.4584 1.95309ZM15.2615 9.5682C15.3795 10.4292 15.45 11.2568 15.45 12L16.95 12C16.95 11.1681 16.8715 10.269 16.7476 9.36461L15.2615 9.5682ZM21.4222 7.35242C20.2692 7.70212 18.1033 8.3164 15.8685 8.72886L16.1407 10.204C18.4546 9.7769 20.6809 9.14473 21.8576 8.78785L21.4222 7.35242ZM15.8685 8.72886C14.5129 8.97904 13.1579 9.15 12 9.15L12 10.65C13.2874 10.65 14.743 10.4619 16.1407 10.204L15.8685 8.72886ZM15.45 12C15.45 13.1009 15.2954 14.3808 15.0647 15.671L16.5413 15.935C16.7797 14.6019 16.95 13.2252 16.95 12L15.45 12ZM15.0647 15.671C14.5591 18.4992 13.7097 21.2593 13.4584 22.0469L14.8874 22.5029C15.145 21.6956 16.0181 18.8613 16.5413 15.935L15.0647 15.671ZM22.0469 13.4584C21.2593 13.7097 18.4992 14.5591 15.671 15.0647L15.935 16.5413C18.8613 16.0181 21.6956 15.145 22.5029 14.8874L22.0469 13.4584ZM15.671 15.0647C14.3808 15.2954 13.1009 15.45 12 15.45L12 16.95C13.2252 16.95 14.6019 16.7797 15.935 16.5413L15.671 15.0647ZM12 15.45C10.8991 15.45 9.61923 15.2954 8.32897 15.0647L8.06496 16.5413C9.39807 16.7797 10.7748 16.95 12 16.95L12 15.45ZM8.32897 15.0647C5.50076 14.5591 2.74066 13.7097 1.95309 13.4584L1.49712 14.8874C2.30437 15.145 5.13873 16.0181 8.06496 16.5413L8.32897 15.0647ZM7.05 12C7.05 13.2252 7.22032 14.6019 7.45867 15.935L8.93526 15.671C8.70456 14.3808 8.55 13.1009 8.55 12L7.05 12ZM7.45867 15.935C7.98188 18.8613 8.85504 21.6956 9.11261 22.5029L10.5416 22.0469C10.2903 21.2593 9.44094 18.4992 8.93526 15.671L7.45867 15.935ZM9.11261 1.49712C8.81867 2.41835 7.711 6.01664 7.25235 9.36461L8.73846 9.5682C9.17849 6.35621 10.2518 2.8614 10.5416 1.95309L9.11261 1.49712ZM7.25235 9.36461C7.12846 10.269 7.05 11.1681 7.05 12L8.55 12C8.55 11.2568 8.62052 10.4292 8.73846 9.5682L7.25235 9.36461ZM12 9.15C10.8421 9.15 9.4871 8.97904 8.13152 8.72886L7.85929 10.204C9.25697 10.4619 10.7126 10.65 12 10.65L12 9.15ZM8.13152 8.72886C5.89586 8.31625 3.72921 7.70168 2.57657 7.35205L2.14116 8.78747C3.3175 9.14428 5.54457 9.77675 7.85929 10.204L8.13152 8.72886ZM21.38 7.3695C21.3919 7.3633 21.4065 7.35719 21.4222 7.35242L21.8576 8.78785C21.933 8.76498 22.0039 8.73569 22.0712 8.70074L21.38 7.3695ZM1.88425 8.67209C1.96322 8.72038 2.04888 8.75948 2.14116 8.78747L2.57657 7.35205C2.60983 7.36214 2.64048 7.3763 2.66683 7.39242L1.88425 8.67209Z"></path>
		</symbol>
		<symbol
			baseProfile="tiny"
			viewBox="0 0 24 24"
			overflow="visible"
			id="icon-rest-api">
			<g transform="translate(1.000000, 8.000000)">
				<path
					fill-rule="evenodd"
					fill="#5C85DE"
					d="M2-1.9c-1.1,0-2.3,1.1-2.3,2.2V10H2V5.5h2.2V10h2.2V0.3c0-1.1-1.1-2.2-2.3-2.2H2 L2-1.9z M2,3.2v-3h2.2v3H2L2,3.2z"></path>
				<path
					fill-rule="evenodd"
					fill="#5C85DE"
					d="M10.3-2C9.1-2,8-0.9,8,0.2V10l2.2,0V5.5h2.2c1.1,0,2.3-1.1,2.3-2.2l0-3 c0-1.1-1.1-2.2-2.3-2.2H10.3L10.3-2z M10.2,3.2v-3h2.2v3H10.2L10.2,3.2z"></path>
				<polygon
					fill-rule="evenodd"
					fill="#5C85DE"
					points="18.5,0.3 18.5,7.8 16.2,7.8 16.2,10 23,10 23,7.8 20.8,7.8 20.8,0.3 23,0.3 23,-1.9 16.2,-1.9 16.2,0.3 "></polygon>
				<polygon
					fill-rule="evenodd"
					fill="#3367D6"
					points="2,5.5 2,3.2 3.5,3.2 "></polygon>
				<polygon
					fill-rule="evenodd"
					fill="#3367D6"
					points="10.2,5.5 10.2,3.2 11.5,3.2 "></polygon>
				<polygon
					fill-rule="evenodd"
					fill="#3367D6"
					points="18.5,1.8 18.5,1.8 18.5,0.3 20.8,0.3 "></polygon>
			</g>
		</symbol>
		<symbol
			viewBox="0 0 48 48"
			fill="#000000"
			id="icon-ios-safari">
			<g
				stroke="none"
				stroke-width="1"
				fill="none"
				fill-rule="evenodd">
				<g transform="translate(-700.000000, -1043.000000)">
					<g transform="translate(700.000000, 1043.000000)">
						<circle
							fill="#00ABFF"
							cx="24"
							cy="24"
							r="24" />
						<g
							transform="translate(24.388909, 24.176777) rotate(-45.000000) translate(-24.388909, -24.176777) translate(2.888909, 20.676777)">
							<g transform="translate(0.000000, 0.000000)">
								<polygon
									fill="#FFFFFF"
									points="-3.19744231e-13 3.1 21.35 6.2 22.2921646 0.731192283"></polygon>
								<polygon
									fill="#EE0000"
									points="42.7 3.1 21.35 6.2 21.35 2.4901204"></polygon>
								<polygon
									fill="#FFFFFF"
									points="0 3.1 21.35 0 21.35 3.1"></polygon>
								<polygon
									fill="#EE0000"
									points="21.35 -1.59872116e-13 42.7 3.1 21.35 3.1"></polygon>
							</g>
						</g>
					</g>
				</g>
			</g>
		</symbol>
		<symbol
			width="24"
			height="24"
			viewBox="0 0 200.000000 200.000000"
			preserveAspectRatio="xMidYMid meet"
			id="icon-mobile-web">
			<g
				transform="translate(0.000000,200.000000) scale(0.100000,-0.100000)"
				fill="#00ABFF"
				stroke="none">
				<path
					d="M89 1967 c-18 -12 -44 -38 -56 -56 l-23 -34 2 -883 c3 -874 3 -883
24 -910 11 -15 33 -37 48 -48 27 -20 41 -21 502 -24 457 -2 475 -2 513 17 21
11 50 37 62 58 22 34 24 52 27 173 l4 135 95 -3 c330 -11 617 212 689 536 23
104 15 250 -20 358 -53 165 -186 319 -340 394 -113 56 -190 73 -317 74 l-107
0 -5 63 c-3 45 -12 75 -30 102 -48 72 -38 71 -565 71 l-469 0 -34 -23z m975
-109 c10 -14 16 -44 16 -79 l0 -57 -73 -36 c-238 -118 -380 -345 -381 -611 -1
-123 13 -183 71 -305 39 -81 58 -108 132 -180 68 -68 103 -94 168 -125 l82
-40 1 -130 c0 -102 -3 -135 -16 -153 l-15 -22 -449 0 c-394 0 -450 2 -464 16
-14 14 -16 70 -16 470 l0 454 90 0 c77 0 93 3 110 20 24 24 25 38 4 68 -14 20
-23 22 -110 22 l-94 0 0 85 0 85 153 0 c167 0 197 8 197 55 0 50 -18 55 -191
55 l-159 0 0 199 c0 168 2 202 16 215 14 14 70 16 464 16 l449 0 15 -22z m278
-227 c24 -20 71 -105 83 -154 l7 -27 -127 0 -126 0 7 23 c19 63 54 126 83 150
39 32 41 32 73 8z m-227 -38 c-4 -10 -18 -45 -30 -78 l-23 -60 -93 -2 -94 -3
51 48 c49 46 155 111 183 112 9 0 11 -6 6 -17z m453 -11 c56 -29 162 -110 162
-123 0 -5 -40 -9 -89 -9 l-89 0 -18 53 c-9 28 -23 64 -31 80 -18 35 -5 35 65
-1z m-532 -279 c-3 -21 -8 -68 -12 -105 l-6 -68 -139 0 c-139 0 -139 0 -139
23 0 29 27 122 46 160 l15 27 120 0 121 0 -6 -37z m428 22 c3 -8 8 -55 12
-105 l7 -90 -178 0 -177 0 6 58 c4 31 9 78 12 105 l6 47 153 0 c126 0 154 -3
159 -15z m375 -37 c18 -46 40 -127 41 -150 0 -5 -65 -8 -145 -8 l-145 0 -1 53
c0 28 -4 76 -8 105 l-7 52 122 0 122 0 21 -52z m-815 -340 c4 -40 10 -90 13
-111 l6 -38 -124 3 -124 3 -23 58 c-13 32 -26 81 -29 108 l-6 49 140 0 140 0
7 -72z m453 -15 c-11 -146 5 -133 -172 -133 l-153 0 -5 43 c-4 23 -9 72 -13
110 l-6 67 177 0 178 0 -6 -87z m398 45 c-4 -24 -19 -73 -32 -110 l-25 -68
-125 0 c-108 0 -124 2 -119 15 3 9 8 53 12 98 3 45 7 88 10 95 2 9 40 12 145
12 l141 0 -7 -42z m-805 -303 c0 -9 11 -43 25 -77 14 -34 23 -63 21 -66 -9 -9
-143 70 -191 113 l-50 44 98 1 c80 0 97 -3 97 -15z m360 3 c0 -24 -51 -123
-78 -150 -47 -50 -86 -31 -135 67 -13 28 -28 60 -31 73 l-7 22 125 0 c94 0
126 -3 126 -12z m257 -33 c-47 -44 -132 -97 -174 -109 l-22 -7 24 63 c13 35
26 71 29 81 5 15 18 17 98 17 l93 -1 -48 -44z" />
				<path
					d="M420 1761 c-16 -31 -12 -59 12 -75 18 -13 52 -16 166 -16 138 0 144
1 167 24 25 25 25 44 2 74 -7 9 -54 12 -173 12 -151 0 -164 -1 -174 -19z" />
				<path
					d="M260 348 c-17 -9 -26 -23 -28 -44 -5 -48 17 -59 120 -59 77 0 92 3
104 19 18 25 18 47 0 71 -12 16 -29 20 -93 23 -50 2 -87 -2 -103 -10z" />
				<path
					d="M763 350 c-59 -24 -45 -93 22 -106 65 -12 146 0 167 26 24 29 23 36
-7 65 -21 22 -33 25 -92 24 -37 0 -78 -4 -90 -9z" />
			</g>
		</symbol>
		<symbol
			viewBox="0 0 32 32"
			id="icon-app">
			<path
				d="M12 1.25h-8c-1.518 0.002-2.748 1.232-2.75 2.75v8c0.002 1.518 1.232 2.748 2.75 2.75h8c1.518-0.002 2.748-1.232 2.75-2.75v-8c-0.002-1.518-1.232-2.748-2.75-2.75h-0zM13.25 12c-0.001 0.69-0.56 1.249-1.25 1.25h-8c-0.69-0.001-1.249-0.56-1.25-1.25v-8c0.001-0.69 0.56-1.249 1.25-1.25h8c0.69 0.001 1.249 0.56 1.25 1.25v0zM12 17.25h-8c-1.518 0.002-2.748 1.232-2.75 2.75v8c0.002 1.518 1.232 2.748 2.75 2.75h8c1.518-0.002 2.748-1.232 2.75-2.75v-8c-0.002-1.518-1.232-2.748-2.75-2.75h-0zM13.25 28c-0.001 0.69-0.56 1.249-1.25 1.25h-8c-0.69-0.001-1.249-0.56-1.25-1.25v-8c0.001-0.69 0.56-1.249 1.25-1.25h8c0.69 0.001 1.249 0.56 1.25 1.25v0zM28 1.25h-8c-1.518 0.002-2.748 1.232-2.75 2.75v8c0.002 1.518 1.232 2.748 2.75 2.75h8c1.518-0.002 2.748-1.232 2.75-2.75v-8c-0.002-1.518-1.232-2.748-2.75-2.75h-0zM29.25 12c-0.001 0.69-0.56 1.249-1.25 1.25h-8c-0.69-0.001-1.249-0.56-1.25-1.25v-8c0.001-0.69 0.56-1.249 1.25-1.25h8c0.69 0.001 1.249 0.56 1.25 1.25v0zM28 17.25h-8c-1.518 0.002-2.748 1.232-2.75 2.75v8c0.002 1.518 1.232 2.748 2.75 2.75h8c1.518-0.002 2.748-1.232 2.75-2.75v-8c-0.002-1.518-1.232-2.748-2.75-2.75h-0zM29.25 28c-0.001 0.69-0.56 1.249-1.25 1.25h-8c-0.69-0.001-1.249-0.56-1.25-1.25v-8c0.001-0.69 0.56-1.249 1.25-1.25h8c0.69 0.001 1.249 0.56 1.25 1.25v0z"></path>
		</symbol>
		<symbol
			fill="#000000"
			viewBox="0 0 52 52"
			enable-background="new 0 0 52 52"
			xml:space="preserve"
			id="icon-apps-nine">
			<path d="M13,4H7C5.3,4,4,5.3,4,7v6c0,1.7,1.3,3,3,3h6c1.7,0,3-1.3,3-3V7C16,5.3,14.7,4,13,4z"></path>
			<path d="M13,36H7c-1.7,0-3,1.3-3,3v6c0,1.7,1.3,3,3,3h6c1.7,0,3-1.3,3-3v-6C16,37.3,14.7,36,13,36z"></path>
			<path d="M13,20H7c-1.7,0-3,1.3-3,3v6c0,1.7,1.3,3,3,3h6c1.7,0,3-1.3,3-3v-6C16,21.3,14.7,20,13,20z"></path>
			<path d="M29,4h-6c-1.7,0-3,1.3-3,3v6c0,1.7,1.3,3,3,3h6c1.7,0,3-1.3,3-3V7C32,5.3,30.7,4,29,4z"></path>
			<path d="M29,36h-6c-1.7,0-3,1.3-3,3v6c0,1.7,1.3,3,3,3h6c1.7,0,3-1.3,3-3v-6C32,37.3,30.7,36,29,36z"></path>
			<path d="M29,20h-6c-1.7,0-3,1.3-3,3v6c0,1.7,1.3,3,3,3h6c1.7,0,3-1.3,3-3v-6C32,21.3,30.7,20,29,20z"></path>
			<path d="M45,4h-6c-1.7,0-3,1.3-3,3v6c0,1.7,1.3,3,3,3h6c1.7,0,3-1.3,3-3V7C48,5.3,46.7,4,45,4z"></path>
			<path d="M45,36h-6c-1.7,0-3,1.3-3,3v6c0,1.7,1.3,3,3,3h6c1.7,0,3-1.3,3-3v-6C48,37.3,46.7,36,45,36z"></path>
			<path d="M45,20h-6c-1.7,0-3,1.3-3,3v6c0,1.7,1.3,3,3,3h6c1.7,0,3-1.3,3-3v-6C48,21.3,46.7,20,45,20z"></path>
		</symbol>
		<symbol
			viewBox="0 0 32 32"
			id="icon-home">
			<!-- set both `stroke-width` & `fill` -->
			<path
				d="M31.772 16.043l-15.012-15.724c-0.189-0.197-0.449-0.307-0.721-0.307s-0.533 0.111-0.722 0.307l-15.089 15.724c-0.383 0.398-0.369 1.031 0.029 1.414 0.399 0.382 1.031 0.371 1.414-0.029l1.344-1.401v14.963c0 0.552 0.448 1 1 1h6.986c0.551 0 0.998-0.445 1-0.997l0.031-9.989h7.969v9.986c0 0.552 0.448 1 1 1h6.983c0.552 0 1-0.448 1-1v-14.968l1.343 1.407c0.197 0.204 0.459 0.308 0.722 0.308 0.249 0 0.499-0.092 0.692-0.279 0.398-0.382 0.411-1.015 0.029-1.413zM26.985 14.213v15.776h-4.983v-9.986c0-0.552-0.448-1-1-1h-9.965c-0.551 0-0.998 0.445-1 0.997l-0.031 9.989h-4.989v-15.777c0-0.082-0.013-0.162-0.032-0.239l11.055-11.52 10.982 11.507c-0.021 0.081-0.036 0.165-0.036 0.252z"></path>
		</symbol>
		<symbol
			viewBox="0 0 24 24"
			id="icon-notification">
			<!-- `fill` -->
			<path
				d="M6,17v-.5H2.25A2.253,2.253,0,0,1,0,14.25v-.382a2.542,2.542,0,0,1,1.415-2.289A1.248,1.248,0,0,0,2.1,10.572l.446-4.91a6.225,6.225,0,0,1,12.4,0l.446,4.91a1.26,1.26,0,0,0,.686,1.005,2.547,2.547,0,0,1,1.418,2.29v.382a2.252,2.252,0,0,1-2.25,2.25H11.5V17A2.75,2.75,0,0,1,6,17Zm1.5,0A1.25,1.25,0,0,0,10,17v-.5H7.5ZM4.045,5.8,3.6,10.708A2.738,2.738,0,0,1,2.089,12.92a1.055,1.055,0,0,0-.589.949v.382A.751.751,0,0,0,2.25,15h13A.751.751,0,0,0,16,14.25v-.382a1.054,1.054,0,0,0-.586-.948A2.739,2.739,0,0,1,13.9,10.708L13.456,5.8a4.725,4.725,0,0,0-9.411,0Z"
				transform="translate(3.25 2.25)"></path>
		</symbol>
		<symbol
			viewBox="0 0 281.25 281.25"
			id="icon-bookmark">
			<g transform="translate(6693.6064,-4296.9987)">
				<path
					d="m -6616.5971,4334.2893 a 4.6879687,4.6879687 0 0 0 -4.6875,4.6875 v 197.2943 a 4.6879687,4.6879687 0 0 0 7.8332,3.4772 l 60.4706,-54.743 60.4688,54.743 a 4.6879687,4.6879687 0 0 0 7.835,-3.4772 v -197.2943 a 4.6879687,4.6879687 0 0 0 -4.6875,-4.6875 z m 4.6875,9.375 h 117.8576 v 182.0417 l -55.783,-50.4987 a 4.6879687,4.6879687 0 0 0 -6.2915,0 l -55.7831,50.4987 z"
					style="
						color: #000000;
						fill: #3d3d3d;
						fill-opacity: 1;
						fill-rule: evenodd;
						stroke-linecap: round;
						stroke-linejoin: round;
						stroke: none;
					"></path>
			</g>
		</symbol>
		<symbol
			id="icon-search"
			viewBox="0 0 24 24">
			<!-- `fill`, `stroke`, `stroke-width`, `stroke-linecap`, `stroke-linejoin` -->
			<path
				d="M15 15L21 21M10 17C6.13401 17 3 13.866 3 10C3 6.13401 6.13401 3 10 3C13.866 3 17 6.13401 17 10C17 13.866 13.866 17 10 17Z"></path>
		</symbol>
		<symbol
			id="icon-ellipsis-h"
			viewBox="0 0 24 24">
			<g>
				<path
					d="M12 13.75C12.9665 13.75 13.75 12.9665 13.75 12C13.75 11.0335 12.9665 10.25 12 10.25C11.0335 10.25 10.25 11.0335 10.25 12C10.25 12.9665 11.0335 13.75 12 13.75Z"></path>
				<path
					d="M19 13.75C19.9665 13.75 20.75 12.9665 20.75 12C20.75 11.0335 19.9665 10.25 19 10.25C18.0335 10.25 17.25 11.0335 17.25 12C17.25 12.9665 18.0335 13.75 19 13.75Z"></path>
				<path
					d="M5 13.75C5.9665 13.75 6.75 12.9665 6.75 12C6.75 11.0335 5.9665 10.25 5 10.25C4.0335 10.25 3.25 11.0335 3.25 12C3.25 12.9665 4.0335 13.75 5 13.75Z"></path>
			</g>
		</symbol>
		<symbol
			id="icon-ellipsis-v"
			viewBox="0 0 24 24">
			<g>
				<path
					d="M12 13.75C12.9665 13.75 13.75 12.9665 13.75 12C13.75 11.0335 12.9665 10.25 12 10.25C11.0335 10.25 10.25 11.0335 10.25 12C10.25 12.9665 11.0335 13.75 12 13.75Z"></path>
				<path
					d="M12 6.75C12.9665 6.75 13.75 5.9665 13.75 5C13.75 4.0335 12.9665 3.25 12 3.25C11.0335 3.25 10.25 4.0335 10.25 5C10.25 5.9665 11.0335 6.75 12 6.75Z"></path>
				<path
					d="M12 20.75C12.9665 20.75 13.75 19.9665 13.75 19C13.75 18.0335 12.9665 17.25 12 17.25C11.0335 17.25 10.25 18.0335 10.25 19C10.25 19.9665 11.0335 20.75 12 20.75Z"></path>
			</g>
		</symbol>
		<symbol
			id="icon-bin"
			viewBox="0 0 1024 1024">
			<g>
				<path
					d="M831.24 280.772c5.657 0 10.24-4.583 10.24-10.24v-83.528c0-5.657-4.583-10.24-10.24-10.24H194.558a10.238 10.238 0 00-10.24 10.24v83.528c0 5.657 4.583 10.24 10.24 10.24H831.24zm0 40.96H194.558c-28.278 0-51.2-22.922-51.2-51.2v-83.528c0-28.278 22.922-51.2 51.2-51.2H831.24c28.278 0 51.2 22.922 51.2 51.2v83.528c0 28.278-22.922 51.2-51.2 51.2z"></path>
				<path
					d="M806.809 304.688l-58.245 666.45c-.544 6.246-6.714 11.9-12.99 11.9H290.226c-6.276 0-12.447-5.654-12.99-11.893L218.99 304.688c-.985-11.268-10.917-19.604-22.185-18.619s-19.604 10.917-18.619 22.185l58.245 666.45c2.385 27.401 26.278 49.294 53.795 49.294h445.348c27.517 0 51.41-21.893 53.796-49.301l58.244-666.443c.985-11.268-7.351-21.201-18.619-22.185s-21.201 7.351-22.185 18.619zM422.02 155.082V51.3c0-5.726 4.601-10.342 10.24-10.342h161.28c5.639 0 10.24 4.617 10.24 10.342v103.782c0 11.311 9.169 20.48 20.48 20.48s20.48-9.169 20.48-20.48V51.3c0-28.316-22.908-51.302-51.2-51.302H432.26c-28.292 0-51.2 22.987-51.2 51.302v103.782c0 11.311 9.169 20.48 20.48 20.48s20.48-9.169 20.48-20.48z"></path>
				<path
					d="M496.004 410.821v460.964c0 11.311 9.169 20.48 20.48 20.48s20.48-9.169 20.48-20.48V410.821c0-11.311-9.169-20.48-20.48-20.48s-20.48 9.169-20.48 20.48zm-192.435 1.767l39.936 460.964c.976 11.269 10.903 19.612 22.171 18.636s19.612-10.903 18.636-22.171l-39.936-460.964c-.976-11.269-10.903-19.612-22.171-18.636s-19.612 10.903-18.636 22.171zm377.856-3.535l-39.936 460.964c-.976 11.269 7.367 21.195 18.636 22.171s21.195-7.367 22.171-18.636l39.936-460.964c.976-11.269-7.367-21.195-18.636-22.171s-21.195 7.367-22.171 18.636z"></path>
			</g>
		</symbol>
		<symbol
			id="icon-filter"
			viewBox="0 0 20 20">
			<path
				d="M17.8571 2.87669C18.107 3.41157 18.0246 4.04275 17.6457 4.49555L12.4892 10.6589V15.3856C12.4892 16.0185 12.097 16.5852 11.5048 16.8082L9.56669 17.5381C9.09976 17.7139 8.57627 17.6494 8.16598 17.3655C7.75569 17.0816 7.51084 16.6144 7.51084 16.1155V10.6589L2.35425 4.49555C1.97542 4.04275 1.89302 3.41157 2.14291 2.87669C2.39279 2.34182 2.92977 2 3.52013 2H16.4799C17.0702 2 17.6072 2.34182 17.8571 2.87669ZM16.4799 3.52012H3.52013L8.91611 9.96964C8.99036 10.0584 9.03096 10.1698 9.03096 10.2848V16.1155L10.969 15.3856V10.2848C10.969 10.1698 11.0096 10.0584 11.0839 9.96964L16.4799 3.52012Z"
				fill-rule="evenodd"
				clip-rule="evenodd"></path>
		</symbol>
		<symbol
			id="icon-manage"
			viewBox="0 0 32 32">
			<path
				d="M7,8.05V5.5C7,5.224,6.776,5,6.5,5S6,5.224,6,5.5v2.55C4.306,8.295,3,9.738,3,11.5s1.306,3.205,3,3.45 V26.5C6,26.776,6.224,27,6.5,27S7,26.776,7,26.5V14.95c1.694-0.245,3-1.688,3-3.45S8.694,8.295,7,8.05z M6.5,14 C5.122,14,4,12.878,4,11.5C4,10.121,5.122,9,6.5,9S9,10.121,9,11.5C9,12.878,7.878,14,6.5,14z M16,17.05V5.5 C16,5.224,15.776,5,15.5,5S15,5.224,15,5.5v11.55c-1.694,0.245-3,1.688-3,3.45s1.306,3.205,3,3.45v2.55c0,0.276,0.224,0.5,0.5,0.5 s0.5-0.224,0.5-0.5v-2.55c1.694-0.245,3-1.688,3-3.45S17.694,17.295,16,17.05z M15.5,23c-1.378,0-2.5-1.122-2.5-2.5 c0-1.379,1.122-2.5,2.5-2.5s2.5,1.121,2.5,2.5C18,21.878,16.878,23,15.5,23z M28,14.5c0-1.762-1.306-3.205-3-3.45V5.5 C25,5.224,24.776,5,24.5,5S24,5.224,24,5.5v5.55c-1.694,0.245-3,1.688-3,3.45s1.306,3.205,3,3.45v8.55c0,0.276,0.224,0.5,0.5,0.5 s0.5-0.224,0.5-0.5v-8.55C26.694,17.705,28,16.262,28,14.5z M24.5,17c-1.378,0-2.5-1.122-2.5-2.5c0-1.379,1.122-2.5,2.5-2.5 s2.5,1.121,2.5,2.5C27,15.878,25.878,17,24.5,17z"></path>
		</symbol>
		<symbol
			id="icon-plus"
			viewBox="0 0 32 32">
			<g>
				<line
					x1="16"
					x2="16"
					y1="7"
					y2="25"></line>
				<line
					x1="7"
					x2="25"
					y1="16"
					y2="16"></line>
			</g>
		</symbol>
		<symbol
			id="icon-minus"
			viewBox="0 0 32 32">
			<line
				x1="7"
				x2="25"
				y1="16"
				y2="16"></line>
		</symbol>
		<symbol
			id="icon-cancel"
			viewBox="0 0 32 32">
			<g>
				<line
					x1="4"
					x2="28"
					y1="4"
					y2="28"></line>
				<line
					x1="4"
					x2="28"
					y1="28"
					y2="4"></line>
			</g>
		</symbol>
		<symbol
			id="icon-pencil"
			viewBox="0 0 24 24">
			<path
				fill-rule="evenodd"
				clip-rule="evenodd"
				d="m3.99 16.854-1.314 3.504a.75.75 0 0 0 .966.965l3.503-1.314a3 3 0 0 0 1.068-.687L18.36 9.175s-.354-1.061-1.414-2.122c-1.06-1.06-2.122-1.414-2.122-1.414L4.677 15.786a3 3 0 0 0-.687 1.068zm12.249-12.63 1.383-1.383c.248-.248.579-.406.925-.348.487.08 1.232.322 1.934 1.025.703.703.945 1.447 1.025 1.934.058.346-.1.677-.348.925L19.774 7.76s-.353-1.06-1.414-2.12c-1.06-1.062-2.121-1.415-2.121-1.415z"></path>
		</symbol>
		<symbol id="icon-user-profile--hexagon">
			<path
				d="M18.125 1.51554C16.1912 0.39909 13.8088 0.39909 11.875 1.51554L4.01859 6.05144C2.08484 7.1679 0.893594 9.23119 0.893594 11.4641V20.5359C0.893594 22.7688 2.08484 24.8321 4.01859 25.9486L11.875 30.4845C13.8088 31.6009 16.1912 31.6009 18.125 30.4845L25.9814 25.9486C27.9152 24.8321 29.1064 22.7688 29.1064 20.5359V11.4641C29.1064 9.23119 27.9152 7.1679 25.9814 6.05144L18.125 1.51554Z"
				fill="url(#pattern0)" />
		</symbol>
		<symbol
			id="icon-chevron-up"
			viewBox="0 0 24 24">
			<!-- fill, stroke, stroke-width, stroke-linecap, stroke-linejoin -->
			<path d="M5 16L12 9L19 16"></path>
		</symbol>
		<symbol
			id="icon-chevron-right"
			viewBox="0 0 24 24">
			<path d="M9 6L15 12L9 18"></path>
		</symbol>
		<symbol
			id="icon-chevron-down"
			viewBox="0 0 24 24">
			<path d="M17 9.5L12 14.5L7 9.5"></path>
		</symbol>
		<symbol
			id="icon-chevron-left"
			viewBox="0 0 24 24">
			<!-- fill, stroke, stroke-width, stroke-linecap, stroke-linejoin -->
			<path d="M15 19L8 12L15 5"></path>
		</symbol>
		<symbol
			id="icon-ampersand"
			viewBox="0 0 24 24"
			stroke="none"
			stroke-width="1">
			<path
				d="M24,0 L24,24 L0,24 L0,0 L24,0 Z M12.5934901,23.257841 L12.5819402,23.2595131 L12.5108777,23.2950439 L12.4918791,23.2987469 L12.4918791,23.2987469 L12.4767152,23.2950439 L12.4056548,23.2595131 C12.3958229,23.2563662 12.3870493,23.2590235 12.3821421,23.2649074 L12.3780323,23.275831 L12.360941,23.7031097 L12.3658947,23.7234994 L12.3769048,23.7357139 L12.4804777,23.8096931 L12.4953491,23.8136134 L12.4953491,23.8136134 L12.5071152,23.8096931 L12.6106902,23.7357139 L12.6232938,23.7196733 L12.6232938,23.7196733 L12.6266527,23.7031097 L12.609561,23.275831 C12.6075724,23.2657013 12.6010112,23.2592993 12.5934901,23.257841 L12.5934901,23.257841 Z M12.8583906,23.1452862 L12.8445485,23.1473072 L12.6598443,23.2396597 L12.6498822,23.2499052 L12.6498822,23.2499052 L12.6471943,23.2611114 L12.6650943,23.6906389 L12.6699349,23.7034178 L12.6699349,23.7034178 L12.678386,23.7104931 L12.8793402,23.8032389 C12.8914285,23.8068999 12.9022333,23.8029875 12.9078286,23.7952264 L12.9118235,23.7811639 L12.8776777,23.1665331 C12.8752882,23.1545897 12.8674102,23.1470016 12.8583906,23.1452862 L12.8583906,23.1452862 Z M12.1430473,23.1473072 C12.1332178,23.1423925 12.1221763,23.1452606 12.1156365,23.1525954 L12.1099173,23.1665331 L12.0757714,23.7811639 C12.0751323,23.7926639 12.0828099,23.8018602 12.0926481,23.8045676 L12.108256,23.8032389 L12.3092106,23.7104931 L12.3186497,23.7024347 L12.3186497,23.7024347 L12.3225043,23.6906389 L12.340401,23.2611114 L12.337245,23.2485176 L12.337245,23.2485176 L12.3277531,23.2396597 L12.1430473,23.1473072 Z"
				fill="none"
				fill-rule="nonzero"></path>
			<path
				d="M12.2149,4.62908 C11.5439,3.95811 10.4561,3.95811 9.78512,4.62908 L9.6303,4.78389 C8.91458,5.49961 8.87056,6.64571 9.52928,7.41421 L10.4927,8.53826 L12.1166,7.14978 C12.8778,6.49884 12.9231,5.33734 12.2149,4.62908 Z M11.7943,10.0568 L13.4163,8.66985 C15.0638,7.26117 15.1618,4.74759 13.6291,3.21486 C12.1771,1.76285 9.82291,1.76285 8.3709,3.21486 L8.21608,3.36968 C6.76139,4.82438 6.67192,7.15381 8.01077,8.7158 L8.93307,9.79182 C8.54115,10.1235 8.08619,10.5336 7.6292,11.0003 C7.01128,11.6314 6.36804,12.3879 5.87419,13.2136 C5.38482,14.0319 5,14.9883 5,16 C5,19.6161 8.01381,22 11,22 C12.4063,22 14.0293,21.7112 15.6332,20.3989 C16.0702,20.0414 16.4984,19.6139 16.9164,19.1057 L18.2407,20.6508 C18.6002,21.0701 19.2315,21.1187 19.6508,20.7592 C20.0701,20.3998 20.1187,19.7685 19.7593,19.3492 L18.0934,17.4057 C18.7417,16.3071 19.3597,14.9662 19.9417,13.3363 C20.1275,12.8162 19.8564,12.244 19.3363,12.0582 C18.8162,11.8725 18.244,12.1435 18.0583,12.6636 C17.6149,13.905 17.1615,14.9345 16.7073,15.7885 L11.7943,10.0568 Z M15.5904,17.5588 L10.2347,11.3104 C9.87869,11.6112 9.46745,11.9816 9.05826,12.3996 C8.50432,12.9653 7.97569,13.5964 7.59063,14.2402 C7.20111,14.8915 7,15.4866 7,16 C7,18.3838 8.98619,20 11,20 C12.0937,20 13.2207,19.7887 14.3668,18.851 C14.7641,18.5259 15.1745,18.1047 15.5904,17.5588 Z"
				fill-rule="evenodd"></path>
		</symbol>
		<symbol viewBox="0 0 24 24">
			<path
				d="M13 9h5.5L13 3.5V9M6 2h8l6 6v12a2 2 0 0 1-2 2H6a2 2 0 0 1-2-2V4c0-1.11.89-2 2-2m9 16v-2H6v2h9m3-4v-2H6v2h12z" />
		</symbol>
		<symbol
			id="icon-file"
			viewBox="0 0 24 24"
			fill="none">
			<!-- <path
				d="M13 9h5.5L13 3.5V9M6 2h8l6 6v12a2 2 0 0 1-2 2H6a2 2 0 0 1-2-2V4c0-1.11.89-2 2-2m5 2H6v16h12v-9h-7V4z" /> -->
			<path
				d="M13.5 3H12H8C6.34315 3 5 4.34315 5 6V18C5 19.6569 6.34315 21 8 21H11M13.5 3L19 8.625M13.5 3V7.625C13.5 8.17728 13.9477 8.625 14.5 8.625H19M19 8.625V11.8125"
				stroke-width="2"
				stroke-linecap="round"
				stroke-linejoin="round"></path>
			<path
				d="M17 15V18M17 21V18M17 18H14M17 18H20"
				stroke-width="2"
				stroke-linecap="round"
				stroke-linejoin="round"></path>
		</symbol>
		<symbol
			id="icon-file-compare"
			viewBox="0 0 32 32">
			<path
				d="M28,6H18V4a2,2,0,0,0-2-2H4A2,2,0,0,0,2,4V24a2,2,0,0,0,2,2H14v2a2,2,0,0,0,2,2H28a2,2,0,0,0,2-2V8A2,2,0,0,0,28,6ZM4,15h6.17L7.59,17.59,9,19l5-5L9,9,7.59,10.41,10.17,13H4V4H16V24H4ZM16,28V26a2,2,0,0,0,2-2V8H28v9H21.83l2.58-2.59L23,13l-5,5,5,5,1.41-1.41L21.83,19H28v9Z"
				transform="translate(0)"></path>
			<rect
				fill="none"
				width="32"
				height="32"></rect>
		</symbol>
		<symbol
			id="icon-file-comparator-icon"
			viewBox="0 0 24 24">
			<g clip-path="url(#clip0_429_11147)">
				<path
					d="M13 3.99969H6C4.89543 3.99969 4 4.89513 4 5.99969V17.9997C4 19.1043 4.89543 19.9997 6 19.9997H13M17 3.99969H18C19.1046 3.99969 20 4.89513 20 5.99969V6.99969M20 16.9997V17.9997C20 19.1043 19.1046 19.9997 18 19.9997H17M20 10.9997V12.9997M12 1.99969V21.9997"
					stroke-width="2.5"
					stroke-linecap="round"
					stroke-linejoin="round"></path>
			</g>
			<defs>
				<clipPath id="clip0_429_11147">
					<rect
						width="24"
						height="24"
						fill="white"
						transform="translate(0 -0.000305176)"></rect>
				</clipPath>
			</defs>
		</symbol>
		<symbol
			id="icon-user-group"
			viewBox="0 0 24 24">
			<path
				d="M19 15C21.2091 15 23 16.7909 23 19V21H21M16 10.874C17.7252 10.4299 19 8.86383 19 6.99999C19 5.13615 17.7252 3.57005 16 3.12601M13 7C13 9.20914 11.2091 11 9 11C6.79086 11 5 9.20914 5 7C5 4.79086 6.79086 3 9 3C11.2091 3 13 4.79086 13 7ZM5 15H13C15.2091 15 17 16.7909 17 19V21H1V19C1 16.7909 2.79086 15 5 15Z"></path>
		</symbol>
		<symbol
			id="icon-briefcase"
			viewBox="0 0 24 24">
			<!-- stroke=stroke-width -->
			<g>
				<path
					d="M2 9C2 7.89543 2.89543 7 4 7H20C21.1046 7 22 7.89543 22 9V20C22 21.1046 21.1046 22 20 22H4C2.89543 22 2 21.1046 2 20V9Z"
					stroke-linecap="round"
					stroke-linejoin="round"></path>
				<path
					d="M16 7V4C16 2.89543 15.1046 2 14 2H10C8.89543 2 8 2.89543 8 4V7"
					stroke-linecap="round"
					stroke-linejoin="round"></path>
				<path
					d="M22 12H2"
					stroke-linecap="round"
					stroke-linejoin="round"></path>
				<path
					d="M7 12V14"
					stroke-linecap="round"
					stroke-linejoin="round"></path>
				<path
					d="M17 12V14"
					stroke-linecap="round"
					stroke-linejoin="round"></path>
			</g>
		</symbol>
		<symbol
			id="icon-cog"
			viewBox="0 0 16 16">
			<path
				d="M.63 11.08zm.21.41v-.1zm.23.38L1 11.68zM1 11.68l-.11-.19zm-.21-.29c-.06-.1-.11-.21-.16-.31.05.1.1.21.16.31zm.32.54v-.06z"></path>
			<path
				d="m11.26 12.63 1.83 1.09a7.34 7.34 0 0 0 1-.94 7.48 7.48 0 0 0 1.56-2.86l-1.74-1A5.29 5.29 0 0 0 14 8a5.29 5.29 0 0 0-.08-.9l1.74-1a7.45 7.45 0 0 0-1.33-2.58 7.54 7.54 0 0 0-1.24-1.22l-1.83 1.04a6 6 0 0 0-1.11-.53v-2A8.55 8.55 0 0 0 7.94.53a8.39 8.39 0 0 0-2.26.3v2a7.23 7.23 0 0 0-1.12.54L2.78 2.28A7.46 7.46 0 0 0 .2 6.06l1.72 1a5.29 5.29 0 0 0-.08.9 5.29 5.29 0 0 0 .08.9l-1.73 1a8 8 0 0 0 .43 1.15c.05.1.1.21.16.31v.1l.11.19.12.19v.06a7.69 7.69 0 0 0 1.64 1.78l1.81-1.08a7.23 7.23 0 0 0 1.12.54v2a8.39 8.39 0 0 0 2.26.31 8.56 8.56 0 0 0 2.22-.3v-2a6 6 0 0 0 1.2-.48zm-2.39 1.52a7.57 7.57 0 0 1-.95.06 7.73 7.73 0 0 1-1-.06v-1.69a4.92 4.92 0 0 1-2.53-1.27l-1.54.92a6.22 6.22 0 0 1-1.08-1.61l1.56-.93a4.27 4.27 0 0 1 0-3.17l-1.56-.92a6.11 6.11 0 0 1 1.12-1.62l1.56.93A5 5 0 0 1 7 3.53V1.82a7.73 7.73 0 0 1 1-.06 7.57 7.57 0 0 1 .95.06v1.72a4.9 4.9 0 0 1 2.4 1.26l1.59-.94a6.31 6.31 0 0 1 1.11 1.62l-1.6.94a4.35 4.35 0 0 1 .3 1.58 4.44 4.44 0 0 1-.29 1.55l1.56.93a6.43 6.43 0 0 1-1.11 1.61l-1.58-.93a5 5 0 0 1-2.49 1.28z"></path>
			<path
				d="M7.92 5.49A2.59 2.59 0 0 0 5.25 8a2.59 2.59 0 0 0 2.67 2.51A2.6 2.6 0 0 0 10.6 8a2.6 2.6 0 0 0-2.68-2.51zM8 9.2A1.35 1.35 0 0 1 6.55 8 1.35 1.35 0 0 1 8 6.7 1.35 1.35 0 0 1 9.39 8 1.35 1.35 0 0 1 8 9.2z"></path>
		</symbol>
		<symbol
			id="icon-security-user"
			viewBox="0 0 24 24">
			<path
				d="M10.49 2.23006L5.50003 4.10005C4.35003 4.53005 3.41003 5.89004 3.41003 7.12004V14.55C3.41003 15.73 4.19005 17.28 5.14005 17.99L9.44003 21.2001C10.85 22.2601 13.17 22.2601 14.58 21.2001L18.88 17.99C19.83 17.28 20.61 15.73 20.61 14.55V7.12004C20.61 5.89004 19.67 4.53005 18.52 4.10005L13.53 2.23006C12.68 1.92006 11.32 1.92006 10.49 2.23006Z"></path>
			<path
				d="M12.0001 10.92C11.9601 10.92 11.9101 10.92 11.8701 10.92C10.9301 10.89 10.1801 10.11 10.1801 9.16003C10.1801 8.19003 10.9701 7.40002 11.9401 7.40002C12.9101 7.40002 13.7001 8.19003 13.7001 9.16003C13.6901 10.12 12.9401 10.89 12.0001 10.92Z"></path>
			<path
				d="M10.01 13.72C9.05004 14.36 9.05004 15.41 10.01 16.05C11.1 16.78 12.89 16.78 13.98 16.05C14.94 15.41 14.94 14.36 13.98 13.72C12.9 12.99 11.11 12.99 10.01 13.72Z"></path>
		</symbol>
		<symbol
			id="icon-folder"
			viewBox="0 0 24 24">
			<path
				d="M3 6.47214C3 6.16165 3.07229 5.85542 3.21115 5.57771L4 4H9L10 6H20C20.5523 6 21 6.44772 21 7V9V19C21 19.5523 20.5523 20 20 20H4C3.44772 20 3 19.5523 3 19V9V6.47214Z"></path>
			<path
				d="M4 20H20C20.5523 20 21 19.5523 21 19V11C21 9.89543 20.1046 9 19 9H5C3.89543 9 3 9.89543 3 11V19C3 19.5523 3.44772 20 4 20Z"></path>
		</symbol>
		<symbol
			id="icon-folder-open-side"
			viewBox="0 0 24 24">
			<path
				d="M4 9V6.47214C4 6.16165 4.07229 5.85542 4.21115 5.57771L5 4H10L11 6H21C21.5523 6 22 6.44772 22 7V9V18C22 19.1046 21.1046 20 20 20H18"></path>
			<path
				d="M17.2362 9H2.30925C1.64988 9 1.17099 9.62698 1.34449 10.2631L3.59806 18.5262C3.83537 19.3964 4.62569 20 5.52759 20H19.6908C20.3501 20 20.829 19.373 20.6555 18.7369L18.201 9.73688C18.0823 9.30182 17.6872 9 17.2362 9Z"></path>
		</symbol>
		<symbol
			id="icon-tick"
			viewBox="0 0 24 24"
			fill="none">
			<path
				d="M4.89163 13.2687L9.16582 17.5427L18.7085 8"
				stroke-linecap="round"
				stroke-linejoin="round"></path>
		</symbol>
		<symbol
			id="icon-wrong"
			viewBox="0 0 200 200">
			<path
				d="M114,100l49-49a9.9,9.9,0,0,0-14-14L100,86,51,37A9.9,9.9,0,0,0,37,51l49,49L37,149a9.9,9.9,0,0,0,14,14l49-49,49,49a9.9,9.9,0,0,0,14-14Z"></path>
		</symbol>
		<symbol
			id="icon-dashboard"
			viewBox="0 -0.5 25 25"
			fill="none"
			class="stroke-primary stroke-1">
			<path
				fill-rule="evenodd"
				clip-rule="evenodd"
				d="M9.918 10.0005H7.082C6.66587 9.99708 6.26541 10.1591 5.96873 10.4509C5.67204 10.7427 5.50343 11.1404 5.5 11.5565V17.4455C5.5077 18.3117 6.21584 19.0078 7.082 19.0005H9.918C10.3341 19.004 10.7346 18.842 11.0313 18.5502C11.328 18.2584 11.4966 17.8607 11.5 17.4445V11.5565C11.4966 11.1404 11.328 10.7427 11.0313 10.4509C10.7346 10.1591 10.3341 9.99708 9.918 10.0005Z"
				stroke-linecap="round"
				stroke-linejoin="round"></path>
			<path
				fill-rule="evenodd"
				clip-rule="evenodd"
				d="M9.918 4.0006H7.082C6.23326 3.97706 5.52559 4.64492 5.5 5.4936V6.5076C5.52559 7.35629 6.23326 8.02415 7.082 8.0006H9.918C10.7667 8.02415 11.4744 7.35629 11.5 6.5076V5.4936C11.4744 4.64492 10.7667 3.97706 9.918 4.0006Z"
				stroke-linecap="round"
				stroke-linejoin="round"></path>
			<path
				fill-rule="evenodd"
				clip-rule="evenodd"
				d="M15.082 13.0007H17.917C18.3333 13.0044 18.734 12.8425 19.0309 12.5507C19.3278 12.2588 19.4966 11.861 19.5 11.4447V5.55666C19.4966 5.14054 19.328 4.74282 19.0313 4.45101C18.7346 4.1592 18.3341 3.9972 17.918 4.00066H15.082C14.6659 3.9972 14.2654 4.1592 13.9687 4.45101C13.672 4.74282 13.5034 5.14054 13.5 5.55666V11.4447C13.5034 11.8608 13.672 12.2585 13.9687 12.5503C14.2654 12.8421 14.6659 13.0041 15.082 13.0007Z"
				stroke-linecap="round"
				stroke-linejoin="round"></path>
			<path
				fill-rule="evenodd"
				clip-rule="evenodd"
				d="M15.082 19.0006H17.917C18.7661 19.0247 19.4744 18.3567 19.5 17.5076V16.4936C19.4744 15.6449 18.7667 14.9771 17.918 15.0006H15.082C14.2333 14.9771 13.5256 15.6449 13.5 16.4936V17.5066C13.525 18.3557 14.2329 19.0241 15.082 19.0006Z"
				stroke-linecap="round"
				stroke-linejoin="round"></path>
		</symbol>
		<symbol
			viewBox="0 0 24 24"
			fill="none"
			class="stroke-primary stroke-1"
			id="icon-square-kanban">
			<path
				d="M8 13V8M16 16V8M12 10V8M7.2 4H16.8C17.9201 4 18.4802 4 18.908 4.21799C19.2843 4.40973 19.5903 4.71569 19.782 5.09202C20 5.51984 20 6.0799 20 7.2V16.8C20 17.9201 20 18.4802 19.782 18.908C19.5903 19.2843 19.2843 19.5903 18.908 19.782C18.4802 20 17.9201 20 16.8 20H7.2C6.0799 20 5.51984 20 5.09202 19.782C4.71569 19.5903 4.40973 19.2843 4.21799 18.908C4 18.4802 4 17.9201 4 16.8V7.2C4 6.0799 4 5.51984 4.21799 5.09202C4.40973 4.71569 4.71569 4.40973 5.09202 4.21799C5.51984 4 6.0799 4 7.2 4Z"
				stroke-linecap="round"
				stroke-linejoin="round"></path>
		</symbol>
		<symbol
			viewBox="0 0 24 24"
			fill="none"
			class="stroke-primary stroke-1"
			id="icon-document-text">
			<path
				d="M3 10C3 6.22876 3 4.34315 4.17157 3.17157C5.34315 2 7.22876 2 11 2H13C16.7712 2 18.6569 2 19.8284 3.17157C21 4.34315 21 6.22876 21 10V14C21 17.7712 21 19.6569 19.8284 20.8284C18.6569 22 16.7712 22 13 22H11C7.22876 22 5.34315 22 4.17157 20.8284C3 19.6569 3 17.7712 3 14V10Z"></path>
			<path
				d="M8 12H16"
				stroke-linecap="round"></path>
			<path
				d="M8 8H16"
				stroke-linecap="round"></path>
			<path
				d="M8 16H13"
				stroke-linecap="round"></path>
		</symbol>
		<!-- fill -->
		<symbol
			id="icon-list-solid"
			viewBox="0 0 48 48">
			<rect
				width="48"
				height="48"
				fill="none"></rect>
			<path
				d="M6,24H6a2,2,0,0,1,2-2h2a2,2,0,0,1,2,2h0a2,2,0,0,1-2,2H8A2,2,0,0,1,6,24ZM8,14h2a2,2,0,0,0,2-2h0a2,2,0,0,0-2-2H8a2,2,0,0,0-2,2H6A2,2,0,0,0,8,14ZM8,38h2a2,2,0,0,0,2-2h0a2,2,0,0,0-2-2H8a2,2,0,0,0-2,2H6A2,2,0,0,0,8,38ZM19,26H39a2,2,0,0,0,2-2h0a2,2,0,0,0-2-2H19a2,2,0,0,0-2,2h0A2,2,0,0,0,19,26Zm0-12H39a2,2,0,0,0,2-2h0a2,2,0,0,0-2-2H19a2,2,0,0,0-2,2h0A2,2,0,0,0,19,14Zm0,24H39a2,2,0,0,0,2-2h0a2,2,0,0,0-2-2H19a2,2,0,0,0-2,2h0A2,2,0,0,0,19,38Z"></path>
		</symbol>
		<symbol
			viewBox="0 0 24 24"
			fill="none"
			class="stroke-primary stroke-1"
			id="icon-check-square">
			<path
				d="M8 12.5L10.5 15L16 9M7.2 20H16.8C17.9201 20 18.4802 20 18.908 19.782C19.2843 19.5903 19.5903 19.2843 19.782 18.908C20 18.4802 20 17.9201 20 16.8V7.2C20 6.0799 20 5.51984 19.782 5.09202C19.5903 4.71569 19.2843 4.40973 18.908 4.21799C18.4802 4 17.9201 4 16.8 4H7.2C6.0799 4 5.51984 4 5.09202 4.21799C4.71569 4.40973 4.40973 4.71569 4.21799 5.09202C4 5.51984 4 6.07989 4 7.2V16.8C4 17.9201 4 18.4802 4.21799 18.908C4.40973 19.2843 4.71569 19.5903 5.09202 19.782C5.51984 20 6.07989 20 7.2 20Z"
				stroke-linecap="round"
				stroke-linejoin="round"></path>
		</symbol>
		<symbol
			id="icon-drag-handle-dots"
			viewBox="0 0 15 15"
			fill="none">
			<path
				fill-rule="evenodd"
				clip-rule="evenodd"
				d="M5.5 4.625C6.12132 4.625 6.625 4.12132 6.625 3.5C6.625 2.87868 6.12132 2.375 5.5 2.375C4.87868 2.375 4.375 2.87868 4.375 3.5C4.375 4.12132 4.87868 4.625 5.5 4.625ZM9.5 4.625C10.1213 4.625 10.625 4.12132 10.625 3.5C10.625 2.87868 10.1213 2.375 9.5 2.375C8.87868 2.375 8.375 2.87868 8.375 3.5C8.375 4.12132 8.87868 4.625 9.5 4.625ZM10.625 7.5C10.625 8.12132 10.1213 8.625 9.5 8.625C8.87868 8.625 8.375 8.12132 8.375 7.5C8.375 6.87868 8.87868 6.375 9.5 6.375C10.1213 6.375 10.625 6.87868 10.625 7.5ZM5.5 8.625C6.12132 8.625 6.625 8.12132 6.625 7.5C6.625 6.87868 6.12132 6.375 5.5 6.375C4.87868 6.375 4.375 6.87868 4.375 7.5C4.375 8.12132 4.87868 8.625 5.5 8.625ZM10.625 11.5C10.625 12.1213 10.1213 12.625 9.5 12.625C8.87868 12.625 8.375 12.1213 8.375 11.5C8.375 10.8787 8.87868 10.375 9.5 10.375C10.1213 10.375 10.625 10.8787 10.625 11.5ZM5.5 12.625C6.12132 12.625 6.625 12.1213 6.625 11.5C6.625 10.8787 6.12132 10.375 5.5 10.375C4.87868 10.375 4.375 10.8787 4.375 11.5C4.375 12.1213 4.87868 12.625 5.5 12.625Z"
				fill="#000000"></path>
		</symbol>
	</defs>
</svg>
